<svg width="16" height="16" viewBox="0 0 16 16" fill="none" xmlns="http://www.w3.org/2000/svg">
<path d="M8 1.5C6.71442 1.5 5.45772 1.88122 4.3888 2.59545C3.31988 3.30968 2.48676 4.32484 1.99479 5.51256C1.50282 6.70028 1.37409 8.00721 1.6249 9.26809C1.8757 10.529 2.49477 11.6872 3.40381 12.5962C4.31285 13.5052 5.47104 14.1243 6.73192 14.3751C7.99279 14.6259 9.29973 14.4972 10.4874 14.0052C11.6752 13.5132 12.6903 12.6801 13.4046 11.6112C14.1188 10.5423 14.5 9.28558 14.5 8C14.4982 6.27665 13.8128 4.62441 12.5942 3.40582C11.3756 2.18722 9.72335 1.50182 8 1.5ZM8 13.5C6.91221 13.5 5.84884 13.1774 4.94437 12.5731C4.0399 11.9687 3.33495 11.1098 2.91867 10.1048C2.50238 9.09977 2.39347 7.9939 2.60568 6.927C2.8179 5.86011 3.34173 4.8801 4.11092 4.11091C4.8801 3.34172 5.86011 2.8179 6.92701 2.60568C7.9939 2.39346 9.09977 2.50238 10.1048 2.91866C11.1098 3.33494 11.9687 4.03989 12.5731 4.94436C13.1774 5.84883 13.5 6.9122 13.5 8C13.4983 9.45818 12.9184 10.8562 11.8873 11.8873C10.8562 12.9184 9.45819 13.4983 8 13.5ZM10.8538 7.64625C10.9002 7.69269 10.9371 7.74783 10.9623 7.80853C10.9874 7.86923 11.0004 7.93429 11.0004 8C11.0004 8.06571 10.9874 8.13077 10.9623 8.19147C10.9371 8.25217 10.9002 8.30731 10.8538 8.35375L8.85375 10.3538C8.75993 10.4476 8.63268 10.5003 8.5 10.5003C8.36732 10.5003 8.24007 10.4476 8.14625 10.3538C8.05243 10.2599 7.99972 10.1327 7.99972 10C7.99972 9.86732 8.05243 9.74007 8.14625 9.64625L9.29313 8.5H5.5C5.36739 8.5 5.24022 8.44732 5.14645 8.35355C5.05268 8.25979 5 8.13261 5 8C5 7.86739 5.05268 7.74021 5.14645 7.64645C5.24022 7.55268 5.36739 7.5 5.5 7.5H9.29313L8.14625 6.35375C8.05243 6.25993 7.99972 6.13268 7.99972 6C7.99972 5.86732 8.05243 5.74007 8.14625 5.64625C8.24007 5.55243 8.36732 5.49972 8.5 5.49972C8.63268 5.49972 8.75993 5.55243 8.85375 5.64625L10.8538 7.64625Z" fill="white"/>
</svg>
