<svg width="32" height="32" viewBox="0 0 32 32" fill="none" xmlns="http://www.w3.org/2000/svg">
<path d="M17.4998 17.4996V22.4996C17.4998 22.8974 17.3418 23.279 17.0605 23.5603C16.7792 23.8416 16.3977 23.9996 15.9998 23.9996C15.602 23.9996 15.2205 23.8416 14.9392 23.5603C14.6579 23.279 14.4998 22.8974 14.4998 22.4996V17.4996C14.4998 17.1018 14.6579 16.7203 14.9392 16.439C15.2205 16.1576 15.602 15.9996 15.9998 15.9996C16.3977 15.9996 16.7792 16.1576 17.0605 16.439C17.3418 16.7203 17.4998 17.1018 17.4998 17.4996ZM21.0073 17.3509L20.5073 22.3509C20.4679 22.7467 20.5873 23.142 20.8393 23.4498C21.0913 23.7575 21.4553 23.9526 21.8511 23.9921C21.9011 23.9921 21.9523 23.9996 22.0011 23.9996C22.3729 23.9993 22.7314 23.8608 23.0069 23.6112C23.2825 23.3615 23.4555 23.0184 23.4923 22.6484L23.9923 17.6484C24.0268 17.2551 23.9049 16.8642 23.653 16.5602C23.4012 16.2563 23.0396 16.0639 22.6468 16.0247C22.254 15.9856 21.8616 16.1028 21.5547 16.3511C21.2478 16.5993 21.0511 16.9586 21.0073 17.3509ZM10.9923 17.3509C10.9485 16.9586 10.7518 16.5993 10.4449 16.3511C10.138 16.1028 9.74564 15.9856 9.35284 16.0247C8.96005 16.0639 8.59852 16.2563 8.34664 16.5602C8.09477 16.8642 7.97285 17.2551 8.00734 17.6484L8.50734 22.6484C8.54423 23.0186 8.7174 23.3619 8.99321 23.6116C9.26902 23.8613 9.62778 23.9996 9.99984 23.9996C10.0486 23.9996 10.0998 23.9996 10.1498 23.9921C10.5457 23.9526 10.9096 23.7575 11.1616 23.4498C11.4136 23.142 11.533 22.7467 11.4936 22.3509L10.9923 17.3509ZM30.4923 12.6984L28.6086 26.8234C28.5284 27.4254 28.2323 27.9778 27.7755 28.3781C27.3187 28.7783 26.7322 28.9992 26.1248 28.9996H5.87484C5.26951 28.9979 4.68524 28.7772 4.22988 28.3784C3.77452 27.9795 3.47881 27.4294 3.39734 26.8296L1.51359 12.7046C1.48429 12.4923 1.50084 12.2762 1.56212 12.0708C1.62339 11.8654 1.72797 11.6755 1.8688 11.514C2.00963 11.3524 2.18346 11.2229 2.37856 11.1342C2.57366 11.0455 2.78551 10.9996 2.99984 10.9996H8.31859L14.8748 3.51211C15.0156 3.35125 15.1892 3.22234 15.3838 3.13401C15.5785 3.04569 15.7898 3 16.0036 3C16.2174 3 16.4287 3.04569 16.6233 3.13401C16.818 3.22234 16.9915 3.35125 17.1323 3.51211L23.6811 10.9996H28.9998C29.2136 10.9997 29.4248 11.0454 29.6194 11.1338C29.814 11.2221 29.9875 11.3511 30.1282 11.5119C30.269 11.6728 30.3737 11.8618 30.4354 12.0665C30.4971 12.2711 30.5144 12.4865 30.4861 12.6984H30.4923ZM12.3061 10.9996H19.6936L15.9998 6.77711L12.3061 10.9996ZM27.2861 13.9996H4.71359L6.31359 25.9996H25.6886L27.2861 13.9996Z" fill="white"/>
</svg>
