<svg width="24" height="24" viewBox="0 0 24 24" fill="none" xmlns="http://www.w3.org/2000/svg">
<rect x="2" y="3" width="20" height="18" fill="white"/>
<g clip-path="url(#clip0_292_29730)">
<path d="M23.04 0H0.96C0.432 0 0 0.432 0 0.96V23.04C0 23.568 0.432 24 0.96 24H23.04C23.568 24 24 23.568 24 23.04V0.96C24 0.432 23.568 0 23.04 0ZM6.888 19.416H5.364C5.364 19.416 6.876 15.888 7.044 15.468L3.732 7.584H5.316L7.812 13.692L10.308 7.584H11.904L6.888 19.416ZM20.136 12.636C20.136 15.828 18.06 16.2 16.5 16.2C14.016 16.2 12.864 15.072 12.864 12.636V7.584H14.316V12.636C14.316 13.644 14.568 14.796 16.5 14.796C18.432 14.796 18.684 13.644 18.684 12.636V7.584H20.136V12.636Z" fill="#E30D76"/>
</g>
<defs>
<clipPath id="clip0_292_29730">
<rect width="24" height="24" fill="white"/>
</clipPath>
</defs>
</svg>
