<svg width="51" height="45" viewBox="0 0 51 45" fill="none" xmlns="http://www.w3.org/2000/svg">
<path d="M50.4993 0C50.7754 0 50.9992 0.22397 50.9993 0.5C50.9993 0.776142 50.7755 1 50.4993 1H45.9652C45.8479 1.80504 45.4407 2.43675 44.8919 2.91699C44.2524 3.47639 43.4242 3.83088 42.64 4.05957C41.8501 4.28985 41.0667 4.40449 40.4857 4.46094C40.4218 4.46714 40.3601 4.47067 40.3011 4.47559C40.3396 4.55965 40.3817 4.64944 40.4222 4.74609C40.6776 5.35577 40.9598 6.21786 41.0599 7.21777C41.2627 9.24635 40.7053 11.8044 37.7943 13.9219C37.571 14.0842 37.2585 14.0346 37.096 13.8115C36.934 13.5885 36.9828 13.2768 37.2054 13.1143C39.7937 11.2317 40.2369 9.03873 40.0648 7.31738C39.9773 6.44271 39.7282 5.67926 39.4993 5.13281C39.3853 4.86062 39.277 4.64407 39.1986 4.49805C39.1595 4.4254 39.1279 4.36992 39.1068 4.33398C39.0965 4.31651 39.0892 4.30299 39.0843 4.29492C39.0819 4.29108 39.0794 4.28765 39.0784 4.28613C38.9807 4.13224 38.9731 3.93619 39.0609 3.77637C39.1487 3.61647 39.3179 3.51757 39.5003 3.51758C39.5023 3.51757 39.5074 3.51762 39.512 3.51758C39.5218 3.51749 39.5377 3.51699 39.5579 3.5166C39.5984 3.51582 39.6589 3.51495 39.7366 3.51172C39.8929 3.50522 40.1183 3.49211 40.389 3.46582C40.933 3.41297 41.6505 3.30765 42.3607 3.10059C43.0762 2.89191 43.7483 2.58963 44.2337 2.16504C44.5909 1.85249 44.8465 1.47421 44.9495 1H34.64C34.7295 1.05851 34.8172 1.11749 34.9007 1.17969C35.7097 1.78274 36.2123 2.53353 36.5218 3.25684C36.8298 3.97705 36.9475 4.6741 36.9896 5.1875C37.0107 5.4453 37.0133 5.66014 37.0101 5.8125C37.0085 5.88839 37.005 5.94904 37.0023 5.99219C36.9999 6.0299 37.0027 6.05279 36.9964 6.06543C36.9969 6.06589 36.9958 6.06732 36.9964 6.06738C36.9688 6.34203 36.7242 6.54212 36.4495 6.51465C36.1753 6.48702 35.9763 6.24303 36.0032 5.96875C36.0033 5.96778 36.002 5.965 36.0023 5.96191C36.0028 5.95545 36.0033 5.94453 36.0042 5.92969C36.0061 5.89942 36.0097 5.8524 36.0111 5.79102C36.0137 5.66806 36.0114 5.4882 35.9935 5.26953C35.9574 4.82946 35.857 4.24355 35.6028 3.64941C35.3499 3.05829 34.9458 2.4622 34.3021 1.98242C33.6605 1.50425 32.7538 1.12279 31.4612 1H26.0638C26.2152 2.51125 26.0501 3.64603 25.5911 4.51562C25.0698 5.50297 24.2152 6.0639 23.2532 6.46191C22.3178 6.8489 21.1755 7.11795 20.0902 7.44727C18.9755 7.78546 17.8425 8.20619 16.7777 8.91602C14.6111 10.3604 13.8205 11.7673 13.5452 12.7588C13.4062 13.2597 13.3935 13.6709 13.4134 13.9492C13.4234 14.0881 13.4421 14.1941 13.4564 14.2617C13.4634 14.295 13.4692 14.3193 13.473 14.333C13.4747 14.3394 13.4764 14.3441 13.4769 14.3457L13.4974 14.4414C13.5249 14.672 13.3883 14.8981 13.1595 14.9746C12.8976 15.0618 12.6141 14.92 12.5267 14.6582L12.5257 14.6572V14.6543C12.5253 14.6531 12.5242 14.6519 12.5237 14.6504C12.5226 14.6469 12.5214 14.6417 12.5198 14.6367C12.5168 14.6268 12.5124 14.6141 12.5081 14.5986C12.4994 14.5668 12.4893 14.5228 12.4778 14.4688C12.455 14.3606 12.4298 14.2091 12.4163 14.0205C12.3892 13.6425 12.4081 13.1153 12.5814 12.4912C12.9307 11.2327 13.8894 9.63915 16.222 8.08398C17.4068 7.29407 18.6493 6.83941 19.8001 6.49023C20.98 6.13225 21.9944 5.90088 22.8714 5.53809C23.7215 5.18633 24.3369 4.74832 24.7064 4.04883C25.0494 3.39891 25.2172 2.45305 25.0589 1H19.7278L1.15949 22.5L19.7278 44H21.8509C21.6745 43.7092 21.5546 43.3801 21.5052 43.0459C21.347 41.9746 21.8425 40.7644 23.2757 40.0479C23.9589 39.7063 24.6974 39.5087 25.4593 39.3604C26.2063 39.2149 27.041 39.1063 27.8548 38.9707C29.5142 38.6941 31.3153 38.2709 33.2347 37.0713C34.978 35.9816 35.6082 33.382 34.9564 31.0713C34.6362 29.9366 34.0172 28.9298 33.1302 28.2666C32.2525 27.6104 31.0766 27.2631 29.5755 27.4941C26.4559 27.9743 25.3943 29.2602 25.0335 30.291C24.8449 30.8304 24.8299 31.3489 24.8646 31.7373C24.8818 31.9303 24.9117 32.0876 24.9359 32.1943C24.9479 32.2475 24.958 32.2882 24.9652 32.3135C24.9687 32.3259 24.9715 32.3349 24.973 32.3398C24.9736 32.3418 24.9747 32.3431 24.9749 32.3438C25.0612 32.6053 24.9189 32.8874 24.6575 32.9746C24.4284 33.0509 24.183 32.9522 24.0667 32.751L24.0247 32.6582L24.0237 32.6553C24.0233 32.654 24.0233 32.6521 24.0228 32.6504C24.0215 32.6465 24.0197 32.6408 24.0179 32.6348C24.0141 32.6227 24.009 32.6062 24.0032 32.5859C23.9916 32.545 23.9765 32.4875 23.9603 32.416C23.9278 32.2728 23.8903 32.0703 23.8685 31.8262C23.825 31.3398 23.8416 30.6703 24.0902 29.96C24.6044 28.4909 26.0432 27.0261 29.4232 26.5059C31.1719 26.2368 32.6222 26.6386 33.7288 27.4658C34.8259 28.2861 35.551 29.4983 35.9183 30.7998C36.6409 33.3615 36.0211 36.5098 33.765 37.9199C31.6846 39.2201 29.7352 39.6711 28.0198 39.957C27.1465 40.1026 26.3869 40.1982 25.6497 40.3418C24.9274 40.4825 24.2898 40.659 23.723 40.9424C22.6562 41.4758 22.4027 42.2777 22.4944 42.8994C22.5966 43.5908 23.0772 44.0013 23.4925 43.9951C23.5114 43.9949 23.5298 43.9982 23.5482 44H30.4632C32.274 43.7664 33.1324 42.8775 33.5589 42.0781C33.779 41.6655 33.8899 41.2631 33.9456 40.9639C33.9733 40.815 33.9869 40.6931 33.9935 40.6113C33.9968 40.5707 33.9986 40.5396 33.9993 40.5205V40.5C33.9995 40.2241 34.2235 40.0002 34.4993 40C34.7754 40 34.9992 40.224 34.9993 40.5V40.5195C34.9992 40.5292 34.999 40.5426 34.9984 40.5586C34.9971 40.591 34.9941 40.6367 34.9896 40.6924C34.9805 40.8039 34.9637 40.9598 34.929 41.1465C34.8597 41.519 34.7204 42.0234 34.4407 42.5479C34.1699 43.0556 33.7711 43.5694 33.1966 44H39.8392C39.6613 43.8639 39.4917 43.717 39.3343 43.5596C38.1792 42.4043 37.4498 40.5893 38.0257 38.8604C38.2822 38.0906 38.5387 37.4797 38.7571 36.957C38.9779 36.4287 39.1521 36.0066 39.2669 35.5762C39.4863 34.7534 39.504 33.85 39.0198 32.1553C38.944 31.8899 39.0973 31.6131 39.3626 31.5371C39.628 31.4615 39.9049 31.6155 39.9808 31.8809C40.4964 33.6856 40.5133 34.783 40.2327 35.835C40.0976 36.3415 39.8965 36.8257 39.68 37.3438C39.461 37.8679 39.2173 38.4466 38.9739 39.1768C38.5508 40.4476 39.0716 41.8827 40.0413 42.8525C41.0187 43.8299 42.2701 44.1736 43.2435 43.5898C43.7788 43.2687 43.9937 42.9296 44.0716 42.6338C44.1528 42.3247 44.1047 41.9844 43.971 41.6367C43.8376 41.29 43.6327 40.9721 43.4534 40.7354C43.3652 40.6189 43.286 40.525 43.2298 40.4619C43.2019 40.4306 43.1797 40.4068 43.1653 40.3916L43.1468 40.373L43.0833 40.2939C42.9553 40.0999 42.9769 39.8368 43.1478 39.666C43.3429 39.4712 43.6586 39.4703 43.8538 39.665L43.8548 39.666L43.8587 39.6699C43.8605 39.6718 43.8628 39.6749 43.8655 39.6777C43.8717 39.6841 43.8806 39.6932 43.8909 39.7041C43.9119 39.7262 43.9415 39.7582 43.9769 39.7979C44.0476 39.8773 44.1446 39.9911 44.2513 40.1318C44.4626 40.4108 44.7265 40.8119 44.9056 41.2773C45.0843 41.7419 45.1913 42.3075 45.0384 42.8887C44.9323 43.2919 44.7079 43.666 44.3528 44H50.4993C50.7754 44 50.9992 44.224 50.9993 44.5C50.9993 44.7761 50.7755 45 50.4993 45H19.4993C19.3544 44.9999 19.2163 44.9367 19.1214 44.8271L0.121401 22.8271C-0.0403865 22.6395 -0.0405474 22.3604 0.121401 22.1729L19.1214 0.172852L19.1995 0.0996094C19.2851 0.035502 19.3905 9.48436e-05 19.4993 0H50.4993Z" fill="#303F3D"/>
<path d="M47.9993 41.0176C48.4135 41.0176 48.7493 41.3534 48.7493 41.7676C48.7493 42.1818 48.4135 42.5176 47.9993 42.5176C47.5853 42.5173 47.2493 42.1816 47.2493 41.7676C47.2493 41.3535 47.5853 41.0178 47.9993 41.0176Z" fill="#303F3D"/>
<path d="M19.9993 38C20.4135 38 20.7492 38.3359 20.7493 38.75C20.7493 39.1642 20.4135 39.5 19.9993 39.5C19.5853 39.4998 19.2493 39.1641 19.2493 38.75C19.2495 38.336 19.5854 38.0002 19.9993 38Z" fill="#303F3D"/>
<path d="M13.0306 31.3877C14.1105 31.42 14.8501 31.692 15.3421 32.1904C15.8208 32.6757 15.9868 33.3018 16.097 33.833C16.2162 34.4079 16.2736 34.8636 16.4661 35.2705C16.6359 35.6292 16.912 35.9385 17.4993 36.1328C17.7613 36.2196 17.9033 36.5026 17.8167 36.7646C17.73 37.0268 17.447 37.1697 17.1849 37.083C16.3287 36.7998 15.8453 36.2952 15.5628 35.6982C15.3032 35.1496 15.215 34.5066 15.1175 34.0361C15.0109 33.522 14.8885 33.1543 14.6302 32.8926C14.3845 32.6437 13.9351 32.4147 13.0003 32.3867C12.7248 32.378 12.5078 32.1477 12.5159 31.8721C12.5242 31.5962 12.7548 31.3797 13.0306 31.3877Z" fill="#303F3D"/>
<path d="M10.0247 29.3418C10.6598 27.4378 13.579 26.2574 16.7474 28.0664C18.3956 29.0077 19.0924 30.5759 19.8704 31.9424C20.6591 33.3275 21.5888 34.6634 23.6898 35.5391C25.7711 36.4063 28.0584 36.0045 29.6116 35.1143C30.3895 34.6683 30.9376 34.126 31.1937 33.6152C31.437 33.1296 31.4149 32.696 31.1087 32.3135C30.7081 31.8131 30.3497 31.6092 30.0677 31.5371C29.7868 31.4655 29.5198 31.5096 29.2708 31.6172C29.017 31.727 28.7958 31.8975 28.6331 32.0498C28.5534 32.1245 28.4915 32.1924 28.4505 32.2393C28.4304 32.2622 28.4147 32.2797 28.4056 32.291C28.4011 32.2966 28.3974 32.3007 28.3958 32.3027L28.3275 32.3779C28.1528 32.5313 27.8882 32.5461 27.6956 32.4004C27.5033 32.2547 27.4463 31.9968 27.5462 31.7871L27.5989 31.7002L27.5999 31.6982L27.6282 31.6621C27.6449 31.6416 27.669 31.6138 27.6985 31.5801C27.7575 31.5128 27.842 31.4211 27.9495 31.3203C28.1618 31.1215 28.4786 30.8704 28.8743 30.6992C29.2751 30.526 29.7711 30.4297 30.3148 30.5684C30.8578 30.7071 31.3895 31.0656 31.889 31.6895C32.4824 32.4311 32.4719 33.2948 32.0872 34.0625C31.715 34.8052 30.9941 35.4744 30.1097 35.9814C28.3379 36.9972 25.7241 37.4703 23.306 36.4629C20.908 35.4637 19.8371 33.9053 19.0013 32.4375C18.1549 30.9509 17.6013 29.706 16.2503 28.9346C13.4201 27.319 11.3398 28.5625 10.9739 29.6582C10.8865 29.9201 10.603 30.0619 10.3411 29.9746C10.0793 29.8872 9.93739 29.6037 10.0247 29.3418Z" fill="#303F3D"/>
<path d="M21.2493 27.5C21.6635 27.5 21.9992 27.8359 21.9993 28.25C21.9993 28.6642 21.6635 29 21.2493 29C20.8353 28.9998 20.4993 28.6641 20.4993 28.25C20.4995 27.836 20.8354 27.5002 21.2493 27.5Z" fill="#303F3D"/>
<path d="M33.429 17.5225C33.7023 17.4836 33.9554 17.674 33.9944 17.9473C34.2642 19.8364 33.7242 21.0982 33.0726 21.8896C32.9805 22.0015 32.8861 22.1023 32.7933 22.1943C33.1085 22.2751 33.4628 22.3884 33.8294 22.5527C35.0637 23.1061 36.44 24.2182 36.9847 26.3965C37.0515 26.6642 36.8891 26.9359 36.6214 27.0029C36.3537 27.0698 36.0822 26.9071 36.015 26.6396C35.5596 24.8182 34.436 23.9202 33.4202 23.4648C32.9064 23.2345 32.4183 23.1176 32.0589 23.0586C31.8799 23.0292 31.7345 23.0142 31.636 23.0068C31.5875 23.0032 31.5504 23.0019 31.5267 23.001C31.5148 23.0005 31.5052 23.0001 31.5003 23H31.4974C31.2575 22.999 31.0523 22.8275 31.0081 22.5918C30.9643 22.3563 31.0937 22.1229 31.3167 22.0352L31.3821 22.0039C31.4348 21.9776 31.5147 21.9352 31.6107 21.873C31.8033 21.7482 32.0587 21.5473 32.3011 21.2529C32.7743 20.678 33.2343 19.6982 33.0042 18.0879C32.9654 17.8147 33.1559 17.5615 33.429 17.5225Z" fill="#303F3D"/>
<path d="M30.4593 5.03125C31.3254 5.02314 32.2029 5.3583 32.9495 5.91992C34.4457 7.04575 35.5052 9.14891 34.9886 11.6035C34.4677 14.0774 32.7963 15.1886 31.2952 15.6641C30.5519 15.8994 29.845 15.983 29.3275 16.0078C29.2693 16.0106 29.2129 16.0103 29.1595 16.0117C29.1802 16.1011 29.2035 16.198 29.2239 16.3018C29.3393 16.8866 29.44 17.6992 29.3734 18.5996C29.2386 20.4194 28.4157 22.6008 25.723 23.9473C23.1351 25.2411 21.2816 25.3865 19.5501 25.1201C18.7055 24.9901 17.8928 24.7625 17.0765 24.5469C16.252 24.3291 15.4026 24.1168 14.4368 23.9961C12.4768 23.7512 10.9515 23.8843 9.87921 24.3359C8.83624 24.7754 8.2052 25.5201 7.98956 26.5977C7.93544 26.8683 7.67231 27.0441 7.40167 26.9902C7.13119 26.9358 6.95497 26.672 7.0091 26.4014C7.29362 24.9797 8.16128 23.9744 9.49152 23.4141C10.7929 22.866 12.5186 22.7486 14.5618 23.0039C15.5975 23.1334 16.5007 23.3594 17.3323 23.5791C18.1719 23.8009 18.9222 24.0109 19.7015 24.1309C21.2187 24.3643 22.8639 24.2586 25.2757 23.0527C27.5827 21.8992 28.2601 20.0805 28.3753 18.5254C28.4335 17.7388 28.3469 17.0194 28.2435 16.4951C28.192 16.2344 28.1364 16.024 28.095 15.8809C28.0744 15.8095 28.0569 15.7543 28.0452 15.7188C28.0395 15.7012 28.0353 15.6876 28.0325 15.6797C28.0313 15.6762 28.0301 15.6733 28.0296 15.6719L28.011 15.6094C27.9789 15.4651 28.0128 15.3118 28.1048 15.1934C28.21 15.0581 28.3776 14.9864 28.5482 15.0029C28.5493 15.003 28.5526 15.0027 28.556 15.0029C28.563 15.0035 28.5754 15.0048 28.5911 15.0059C28.623 15.008 28.6722 15.0115 28.7357 15.0137C28.8637 15.0181 29.0512 15.0197 29.2796 15.0088C29.7389 14.9868 30.3554 14.9129 30.9935 14.7109C32.2552 14.3113 33.5836 13.4229 34.0101 11.3975C34.4405 9.35224 33.5589 7.6299 32.348 6.71875C31.7414 6.26264 31.073 6.02556 30.4681 6.03125C29.8767 6.03705 29.3217 6.27285 28.89 6.8125C28.4109 7.41132 28.2661 7.88807 28.262 8.24805C28.2581 8.60743 28.3935 8.91885 28.6009 9.18848C28.8114 9.46198 29.0852 9.67792 29.3167 9.82812C29.4304 9.90186 29.5305 9.95712 29.5999 9.99316C29.6339 10.0108 29.6609 10.0241 29.678 10.0322C29.6861 10.0361 29.6931 10.0385 29.6966 10.04L29.6976 10.041L29.7864 10.0908C29.9769 10.2242 30.0543 10.4776 29.9583 10.6992C29.8621 10.9208 29.6244 11.0372 29.3968 10.9893L29.3001 10.959L29.2845 10.9512C29.2763 10.9475 29.2646 10.9428 29.2513 10.9365C29.2238 10.9235 29.1852 10.9048 29.139 10.8809C29.0461 10.8326 28.9178 10.761 28.7728 10.667C28.4861 10.481 28.1127 10.1926 27.8089 9.79785C27.5019 9.39874 27.2549 8.87459 27.262 8.23633C27.2693 7.59829 27.5289 6.91222 28.1087 6.1875C28.7359 5.40362 29.5796 5.03965 30.4593 5.03125Z" fill="#303F3D"/>
<path d="M19.3782 11.0107C20.8601 10.6403 22.1194 10.8198 23.1204 11.3848C24.1138 11.9455 24.806 12.859 25.2142 13.875C25.6217 14.8898 25.7558 16.0302 25.6204 17.0879C25.4853 18.1428 25.0756 19.1544 24.3519 19.8721C22.9734 21.2389 21.5515 21.4059 20.4681 21.1982C19.9387 21.0967 19.5006 20.9087 19.1956 20.7471C19.0425 20.6659 18.9205 20.5899 18.8353 20.5332C18.7928 20.5049 18.7587 20.4813 18.7347 20.4639C18.7229 20.4553 18.7135 20.4478 18.7064 20.4424C18.7028 20.4397 18.6989 20.4373 18.6966 20.4355C18.6956 20.4347 18.6945 20.4332 18.6937 20.4326L18.6917 20.4316C18.4745 20.2613 18.4365 19.9468 18.6068 19.7295C18.7768 19.5129 19.0898 19.4746 19.3069 19.6436C19.307 19.6436 19.3078 19.6437 19.3089 19.6445C19.3113 19.6464 19.3161 19.6496 19.3226 19.6543C19.3363 19.6642 19.3585 19.6809 19.389 19.7012C19.4501 19.7419 19.5434 19.7997 19.6634 19.8633C19.9051 19.9914 20.2487 20.1376 20.6566 20.2158C21.448 20.3675 22.5261 20.2743 23.6478 19.1621C24.1739 18.6403 24.5144 17.8571 24.6292 16.9609C24.7436 16.0677 24.6277 15.0993 24.2855 14.2471C23.9436 13.3962 23.3853 12.6828 22.6292 12.2559C21.8803 11.8332 20.889 11.6637 19.6214 11.9805C18.3342 12.3023 17.4885 12.8629 16.93 13.499C16.3685 14.1386 16.0716 14.8845 15.928 15.6094C15.7842 16.3359 15.7975 17.0301 15.8489 17.5469C15.8745 17.8038 15.909 18.0144 15.9368 18.1582C15.9507 18.2297 15.9627 18.2854 15.971 18.3213L15.9827 18.3682C16.0436 18.5966 15.9359 18.8367 15.7249 18.9434C15.5138 19.05 15.2574 18.9942 15.1097 18.8096L15.0989 18.7979C15.0881 18.7854 15.0696 18.7649 15.0443 18.7383C14.9928 18.6845 14.9118 18.6053 14.8021 18.5127C14.5818 18.3269 14.2471 18.0886 13.7991 17.8926C12.9154 17.5061 11.5499 17.2628 9.67511 17.9658C7.78425 18.6749 6.63175 19.8452 6.06671 20.9189C5.78306 21.4582 5.65283 21.963 5.63996 22.3662C5.62685 22.7791 5.73576 23.0281 5.85285 23.1455C6.04804 23.3407 6.04791 23.6573 5.85285 23.8525C5.65757 24.0477 5.34103 24.0478 5.14581 23.8525C4.76344 23.4699 4.62289 22.906 4.64093 22.335C4.65945 21.7539 4.84104 21.1012 5.18195 20.4531C5.86701 19.1512 7.21584 17.8201 9.32453 17.0293C11.449 16.2327 13.0843 16.4883 14.2005 16.9766C14.4351 17.0792 14.6441 17.1935 14.8294 17.3066C14.7981 16.7714 14.8089 16.1109 14.9466 15.415C15.1156 14.5615 15.4751 13.6418 16.179 12.8398C16.8861 12.0346 17.9161 11.3763 19.3782 11.0107Z" fill="#303F3D"/>
<path d="M20.7493 15.2676C21.1635 15.2676 21.4993 15.6034 21.4993 16.0176C21.4993 16.4318 21.1635 16.7676 20.7493 16.7676C20.3353 16.7673 19.9993 16.4316 19.9993 16.0176C19.9993 15.6035 20.3353 15.2678 20.7493 15.2676Z" fill="#303F3D"/>
<path d="M24.4993 8.25C24.9135 8.25 25.2492 8.5859 25.2493 9C25.2493 9.41421 24.9135 9.75 24.4993 9.75C24.0853 9.74977 23.7493 9.41407 23.7493 9C23.7495 8.58604 24.0854 8.25023 24.4993 8.25Z" fill="#303F3D"/>
<path d="M43.9993 6.26758C44.4135 6.26758 44.7493 6.60336 44.7493 7.01758C44.7493 7.43179 44.4135 7.76758 43.9993 7.76758C43.5853 7.76735 43.2493 7.43165 43.2493 7.01758C43.2493 6.60351 43.5853 6.26781 43.9993 6.26758Z" fill="#303F3D"/>
<path d="M47.2493 3.01758C47.6635 3.01758 47.9993 3.35336 47.9993 3.76758C47.9993 4.18179 47.6635 4.51758 47.2493 4.51758C46.8353 4.51735 46.4993 4.18165 46.4993 3.76758C46.4993 3.35351 46.8353 3.01781 47.2493 3.01758Z" fill="#303F3D"/>
</svg>
